HIERARCHY
ROOT Hips
{
	OFFSET 0.00000 0.00000 0.00000
	CHANNELS 6 Xposition Yposition Zposition Yrotation Zrotation Xrotation 
	JOINT Lumbar
	{
		OFFSET 0 0 0
		CHANNELS 3 Zrotation Xrotation Yrotation
		JOINT Neck
		{
			OFFSET 0.00 0.2701 0.00
			CHANNELS 3 Zrotation Xrotation Yrotation
			End Site
			{
				OFFSET 0.00 0.1379 0.00
			}
		}
		JOINT RightShoulder
		{
			OFFSET 0.0119 0.2289 0.1181
			CHANNELS 3 Zrotation Xrotation Yrotation
			JOINT RightElbow
			{
				OFFSET 0.00 -0.1475 0.00
				CHANNELS 2 Zrotation Yrotation
				JOINT RightWrist
				{
					OFFSET 0.00 -0.1605 0.00
					CHANNELS 2 Zrotation Xrotation
					End Site
					{
						OFFSET 0.0040 -0.1068 0.0006
					}
				}
			}
		}
		JOINT LeftShoulder
		{
			OFFSET 0.0119 0.2289 -0.1181
			CHANNELS 3 Zrotation Xrotation Yrotation
			JOINT LeftElbow
			{
				OFFSET 0.00 -0.1475 0.00
				CHANNELS 2 Zrotation Yrotation
				JOINT LeftWrist
				{
					OFFSET 0.00 -0.1605 0.00
					CHANNELS 2 Zrotation Xrotation
					End Site
					{
						OFFSET 0.0040 -0.1068 -0.0006
					}
				}
			}
		}
	}
	JOINT RightHip
	{
		OFFSET 0.0316 -0.0424 0.0458
		CHANNELS 3 Zrotation Xrotation Yrotation
		JOINT RightKnee
		{
			OFFSET 0.00 -0.2438 0.00
			CHANNELS 1 Zrotation
			JOINT RightAnkle
			{
				OFFSET 0.00 -0.2449 0.00
				CHANNELS 3 Zrotation Xrotation Yrotation
				End Site
				{
					OFFSET 0.1237 -0.0542 0.0051
				}
			}
		}
	}
	JOINT LeftHip
	{
		OFFSET 0.0316 -0.0424 -0.0458
		CHANNELS 3 Zrotation Xrotation Yrotation
		JOINT LeftKnee
		{
			OFFSET 0.00 -0.2438 0.00
			CHANNELS 1 Zrotation
			JOINT LeftAnkle
			{
				OFFSET 0.00 -0.2449 0.00
				CHANNELS 3 Zrotation Xrotation Yrotation
				End Site
				{
					OFFSET 0.1237 -0.0542 -0.0051
				}
			}
		}
	}
}
MOTION
Frames: 20
Frame Time: 0.02
-0 0.57926 -0 183.6091 0 -2.71528 1.14789 2.60374 -0.99851 -22.72759 4.11845 -0.33325 -13.13197 -65.81765 -71.3474 24.18623 80.64387 -18.50104 -3.46932 -1.70833 66.32194 56.72303 20.62251 -78.01598 -27.88925 3.19866 -5.07462 2.74239 4.30902 -5.50863 -1.3585 -3.88563 -7.4912 -2.70859 4.47583 0.3414 -6.88942 5.6916 3.15451 2.00899
6e-05 0.57926 1e-05 183.60908 0 -2.71538 1.1438 2.60102 -0.996 -22.72446 4.11028 -0.33341 -13.07853 -65.80777 -71.28404 24.17988 80.53665 -18.47259 -3.49895 -1.68243 66.31254 56.69282 20.61127 -77.96684 -27.86385 3.2152 -5.06278 2.74061 4.30246 -5.52119 -1.35755 -3.89065 -7.47766 -2.7013 4.4745 0.34262 -6.89225 5.68939 3.15635 2.00678
0.00012 0.57926 2e-05 183.60908 0 -2.71547 1.13969 2.5983 -0.99351 -22.72127 4.1022 -0.33354 -13.02542 -65.79797 -71.22096 24.17352 80.43033 -18.44436 -3.52844 -1.65663 66.30309 56.66258 20.6001 -77.91813 -27.83859 3.23167 -5.05097 2.73885 4.29605 -5.53374 -1.3566 -3.89568 -7.4643 -2.69403 4.47317 0.34384 -6.89509 5.68719 3.15817 2.00455
0.00018 0.57926 4e-05 183.60908 0 -2.71558 1.1355 2.59551 -0.99103 -22.7178 4.09437 -0.33351 -12.97324 -65.78842 -71.15843 24.16706 80.3265 -18.4168 -3.55767 -1.63102 66.29331 56.63193 20.58912 -77.87042 -27.81362 3.24808 -5.03911 2.73712 4.28998 -5.5464 -1.35554 -3.9007 -7.45132 -2.68675 4.47187 0.34514 -6.89797 5.68491 3.15995 2.00221
0.00025 0.57925 5e-05 183.60901 0 -2.71565 1.13174 2.59307 -0.98847 -22.71579 4.0852 -0.3343 -12.91627 -65.77757 -71.09306 24.16111 80.20942 -18.38579 -3.58829 -1.60449 66.28526 56.60345 20.57716 -77.81708 -27.7871 3.26487 -5.02742 2.7352 4.28187 -5.55852 -1.35497 -3.90566 -7.43606 -2.67953 4.47045 0.34608 -6.90063 5.68298 3.16196 2.00049
0.00031 0.57925 6e-05 183.60913 0 -2.71579 1.12707 2.58988 -0.9861 -22.71069 4.07887 -0.33339 -12.86941 -65.76949 -71.03369 24.15411 80.12052 -18.36201 -3.61591 -1.57988 66.27354 56.57043 20.56725 -77.77592 -27.76387 3.28078 -5.01544 2.73369 4.27825 -5.57171 -1.3534 -3.91079 -7.42585 -2.67218 4.46928 0.34776 -6.90374 5.68037 3.16349 1.99742
0.00036 0.57925 7e-05 183.60939 0 -2.71622 1.11986 2.58452 -0.98402 -22.69666 4.08055 -0.32739 -12.85064 -65.76893 -70.99036 24.14364 80.10943 -18.35915 -3.63609 -1.56039 66.25114 56.52336 20.56326 -77.76669 -27.74948 3.29522 -5.00197 2.7333 4.28589 -5.5888 -1.34855 -3.91621 -7.42787 -2.66431 4.46884 0.3518 -6.90832 5.67497 3.16368 1.99068
0.00042 0.57925 8e-05 183.60991 0 -2.71672 1.11173 2.57841 -0.98219 -22.67961 4.08507 -0.31975 -12.84199 -65.7712 -70.95314 24.13221 80.12671 -18.36344 -3.65311 -1.54286 66.2251 56.47197 20.56128 -77.77007 -27.73844 3.3086 -4.98833 2.73334 4.29824 -5.6068 -1.34276 -3.92182 -7.43527 -2.65635 4.46864 0.35654 -6.91331 5.66901 3.1634 1.98255
0.00047 0.57925 9e-05 183.61059 0 -2.71715 1.10404 2.57269 -0.9804 -22.66416 4.08817 -0.31315 -12.82859 -65.77223 -70.91345 24.12159 80.13106 -18.36379 -3.67104 -1.52453 66.20103 56.42347 20.55818 -77.76879 -27.726 3.32186 -4.97521 2.73322 4.30922 -5.62377 -1.33773 -3.92745 -7.4414 -2.64853 4.4683 0.36075 -6.91799 5.66391 3.16335 1.97497
0.00053 0.57925 0.0001 183.61012 0 -2.71775 1.09629 2.56674 -0.97794 -22.64762 4.09176 -0.30534 -12.81594 -65.77302 -70.87253 24.10941 80.13579 -18.36692 -3.69118 -1.50579 66.17563 56.37099 20.55592 -77.76297 -27.71304 3.3377 -4.96024 2.73294 4.31712 -5.64332 -1.33131 -3.93266 -7.44277 -2.64023 4.46807 0.36583 -6.92321 5.65634 3.16322 1.96769
0.00058 0.57925 0.00011 183.61206 0 -2.71802 1.08842 2.5611 -0.97694 -22.63277 4.09505 -0.29963 -12.804 -65.77505 -70.83556 24.10024 80.14619 -18.36612 -3.70597 -1.48843 66.15212 56.32585 20.55242 -77.7696 -27.70194 3.3479 -4.94908 2.7331 4.33236 -5.65773 -1.32755 -3.93875 -7.45509 -2.63297 4.46768 0.36929 -6.92737 5.65365 3.16315 1.95954
0.0006 0.57925 0.00012 183.62107 0 -2.71737 1.08048 2.55655 -0.98002 -22.62231 4.09659 -0.30033 -12.79254 -65.77926 -70.80833 24.09959 80.16789 -18.35117 -3.70676 -1.47388 66.13491 56.30127 20.54464 -77.80747 -27.69526 3.34296 -4.9485 2.73444 4.36842 -5.65771 -1.33154 -3.94762 -7.49844 -2.62827 4.46678 0.36799 -6.92873 5.66574 3.1634 1.94853
0.00062 0.57925 0.00012 183.63242 0 -2.7164 1.07244 2.55234 -0.98455 -22.61386 4.09779 -0.30318 -12.78125 -65.78473 -70.78481 24.10197 80.19389 -18.33229 -3.70229 -1.46076 66.1197 56.28436 20.53562 -77.8574 -27.69033 3.33237 -4.95177 2.73619 4.41139 -5.65251 -1.33822 -3.9573 -7.55223 -2.62468 4.46571 0.36505 -6.92897 5.68255 3.16372 1.93684
0.00063 0.57925 0.00013 183.64238 0 -2.71561 1.06444 2.54796 -0.98838 -22.60514 4.09933 -0.30492 -12.76921 -65.79002 -70.75933 24.10297 80.21614 -18.31626 -3.70021 -1.44733 66.10342 56.26446 20.52741 -77.90188 -27.68454 3.32423 -4.95328 2.7377 4.4501 -5.64969 -1.34357 -3.96635 -7.59986 -2.6208 4.46475 0.36294 -6.92953 5.6964 3.16398 1.92598
0.00065 0.57925 0.00014 183.65369 0 -2.71467 1.05643 2.54362 -0.9924 -22.59357 4.1002 -0.30713 -12.76037 -65.7938 -70.73511 24.10401 80.24673 -18.29605 -3.69797 -1.43252 66.08761 56.24237 20.51823 -77.94682 -27.67911 3.31651 -4.95483 2.73945 4.49373 -5.64676 -1.34936 -3.9765 -7.65365 -2.61602 4.46368 0.36055 -6.93083 5.71359 3.16433 1.91288
0.00067 0.57925 0.00015 183.66275 0 -2.71396 1.04842 2.5393 -0.99636 -22.58849 4.10232 -0.30891 -12.74477 -65.8009 -70.7092 24.10564 80.26088 -18.28343 -3.69493 -1.4209 66.07146 56.22667 20.51072 -77.99331 -27.67333 3.30666 -4.95722 2.7408 4.52866 -5.64284 -1.35487 -3.98456 -7.697 -2.61336 4.46278 0.35827 -6.93041 5.72505 3.16453 1.9043
0.00066 0.57925 0.00016 183.66489 0 -2.71394 1.04049 2.53491 -0.99982 -22.60046 4.10838 -0.30878 -12.71037 -65.81763 -70.67673 24.10856 80.22609 -18.2934 -3.69028 -1.41766 66.0528 56.22691 20.5083 -78.04279 -27.66592 3.29156 -4.96102 2.74086 4.53821 -5.63737 -1.35896 -3.98652 -7.70911 -2.61657 4.46239 0.35733 -6.92492 5.71889 3.16428 1.90826
0.00064 0.57925 0.00016 183.66472 0 -2.71415 1.03254 2.53055 -1.00316 -22.61895 4.11566 -0.30819 -12.66915 -65.83751 -70.64258 24.11191 80.17494 -18.31095 -3.68513 -1.41756 66.0339 56.23323 20.50756 -78.09305 -27.65811 3.2747 -4.96553 2.74051 4.53865 -5.63113 -1.36266 -3.98636 -7.71026 -2.62182 4.46216 0.35644 -6.91788 5.70694 3.1639 1.91681
0.00063 0.57925 0.00017 183.66565 0 -2.71425 1.02459 2.5262 -1.00652 -22.63475 4.1221 -0.30792 -12.63101 -65.85543 -70.60985 24.11476 80.13273 -18.32455 -3.68069 -1.41609 66.01588 56.23675 20.50588 -78.14179 -27.65065 3.2591 -4.96974 2.74038 4.54306 -5.62529 -1.36655 -3.98726 -7.71632 -2.62598 4.46185 0.35515 -6.91196 5.69807 3.1636 1.92332
0.00062 0.57925 0.00018 183.66637 0 -2.71439 1.01676 2.52175 -1.01002 -22.64957 4.12966 -0.30721 -12.59287 -65.87562 -70.57453 24.11893 80.08425 -18.34021 -3.67412 -1.41452 65.99485 56.24094 20.50484 -78.19586 -27.6426 3.24116 -4.97405 2.74012 4.54858 -5.61898 -1.37056 -3.98781 -7.72314 -2.63096 4.46158 0.35546 -6.90421 5.68747 3.16316 1.9296
